<?xml version="1.0" standalone="no"?>
<!DOCTYPE svg PUBLIC "-//W3C//DTD SVG 20010904//EN"
 "http://www.w3.org/TR/2001/REC-SVG-20010904/DTD/svg10.dtd">
<svg version="1.0" xmlns="http://www.w3.org/2000/svg"
 width="300.000000pt" height="300.000000pt" viewBox="0 0 300.000000 300.000000"
 preserveAspectRatio="xMidYMid meet">
<metadata>
Created by potrace 1.11, written by Peter Selinger 2001-2013
</metadata>
<g transform="translate(0.000000,300.000000) scale(0.100000,-0.100000)"
fill="#000000" stroke="none">
<path d="M0 2561 l0 -439 34 -21 c27 -17 35 -29 40 -64 7 -46 67 -239 77 -247
3 -3 22 -36 42 -75 45 -85 94 -147 164 -204 44 -36 53 -49 59 -87 11 -76 20
-56 13 29 -4 45 -14 102 -23 126 -19 51 -16 57 14 41 14 -8 6 7 -24 45 -49 59
-58 82 -28 70 9 -5 41 -7 70 -6 58 2 65 -3 158 -115 39 -46 47 -51 107 -62 95
-18 201 -15 313 9 247 51 505 171 584 271 30 39 46 83 60 167 10 63 17 78 49
110 48 48 123 73 236 78 105 4 117 -2 158 -84 79 -156 186 -198 447 -174 167
15 297 41 372 74 l58 26 5 -22 c3 -12 6 -69 8 -127 1 -58 4 134 5 426 l2 532
-32 16 c-33 15 -33 16 -6 16 14 0 29 -6 31 -12 3 -7 6 22 6 65 l1 77 -80 0
c-77 0 -80 -1 -70 -19 15 -29 12 -58 -6 -65 -9 -3 -40 -6 -69 -6 -30 0 -77 -5
-105 -11 -28 -6 -53 -9 -54 -7 -2 1 0 27 3 56 l7 52 -84 0 c-83 0 -84 0 -78
-22 3 -13 9 -46 12 -73 l6 -50 -51 -17 c-28 -9 -53 -13 -55 -10 -2 4 -9 38
-17 76 -12 64 -12 69 6 82 17 13 14 14 -29 14 -30 0 -45 -4 -41 -10 4 -6 -13
-19 -37 -30 -40 -17 -79 -62 -66 -75 2 -3 26 9 52 25 25 17 53 30 60 30 12 0
54 -115 45 -124 -2 -2 -46 -26 -98 -53 -52 -26 -95 -55 -96 -63 -2 -9 -18 -31
-38 -51 -41 -41 -55 -83 -64 -194 -6 -71 -8 -76 -15 -45 -11 46 -1 145 18 181
8 16 32 45 54 65 48 45 45 57 -4 19 -50 -38 -75 -84 -84 -151 -6 -50 -11 -60
-37 -75 -48 -28 -203 -69 -261 -69 -76 0 -114 19 -157 78 -48 68 -70 73 -314
73 -192 0 -323 -14 -411 -42 -18 -6 -36 -8 -39 -5 -12 11 16 179 32 195 8 8
40 17 75 19 71 5 72 4 35 -95 -23 -63 -23 -66 -5 -43 12 14 34 48 51 77 16 28
35 56 42 61 7 5 58 7 115 4 l102 -4 1 -27 1 -26 11 28 c10 26 14 27 76 27 l66
0 -33 20 c-18 11 -41 20 -52 20 -24 0 -24 -1 -1 102 10 46 21 100 24 121 5 34
4 37 -18 37 -21 0 -24 -6 -30 -47 -3 -27 -11 -84 -18 -128 l-12 -80 -102 -3
c-58 -1 -103 1 -103 7 0 5 23 62 50 127 28 65 50 120 50 122 0 2 -23 2 -52 0
l-52 -3 -26 -110 c-35 -143 -35 -143 -78 -150 -74 -12 -82 -12 -82 -4 0 5 29
64 65 132 36 68 65 127 65 130 0 4 -75 7 -166 7 l-167 0 7 -127 c9 -159 13
-195 30 -313 8 -52 13 -97 10 -101 -2 -4 -27 -14 -56 -24 -29 -9 -75 -27 -103
-40 -27 -13 -51 -23 -53 -21 -3 3 67 237 85 286 3 8 7 25 9 38 1 13 14 69 28
125 13 56 28 119 31 140 l7 37 -331 0 -331 0 0 -439z m2893 227 c18 -14 36
-93 38 -162 2 -66 17 -5 18 72 1 46 4 63 14 60 9 -4 13 -74 14 -301 l2 -296
-27 -19 c-86 -61 -281 -127 -400 -136 -109 -8 -230 9 -258 35 -25 23 -55 80
-81 154 -9 27 -30 64 -46 82 -25 28 -30 43 -34 112 -7 105 1 144 40 182 40 40
160 119 181 119 25 0 20 -51 -7 -75 -12 -11 -18 -17 -13 -12 23 17 24 4 5 -40
l-20 -46 43 39 c52 48 132 104 148 104 8 0 10 -10 6 -27 -23 -105 -28 -146
-22 -208 10 -127 66 -247 121 -261 35 -9 21 -24 -23 -25 -33 0 -35 -2 -16 -11
54 -26 194 36 200 88 1 10 9 46 18 79 17 62 21 168 9 226 -6 32 -7 33 -13 9
-3 -14 -16 -29 -28 -35 -18 -8 -22 -18 -22 -52 0 -28 -4 -43 -12 -43 -10 0
-10 -2 0 -8 17 -11 1 -96 -23 -122 -10 -11 -31 -20 -46 -20 -15 0 -31 -4 -34
-10 -10 -16 -42 -12 -49 6 -4 9 -1 23 5 30 8 10 8 23 -1 49 -19 57 -15 150 7
174 18 19 18 18 15 -35 -4 -59 8 -84 39 -84 39 0 54 94 22 140 -9 14 -13 22
-8 18 9 -9 28 24 39 65 7 31 44 37 69 12 12 -11 16 -12 20 -2 2 6 16 -10 30
-38 l26 -50 1 62 c0 77 -23 109 -115 154 -53 26 -72 30 -105 25 -42 -7 -58 10
-17 19 77 17 268 19 290 3z m-387 -52 c-11 -6 -41 -26 -67 -43 -57 -38 -59
-39 -59 -14 0 24 14 35 75 59 50 19 84 18 51 -2z m47 -61 c-3 -9 -8 -14 -10
-11 -3 3 -2 9 2 15 9 16 15 13 8 -4z m-2103 -224 c-7 -58 -19 -120 -27 -137
-17 -38 -33 -133 -23 -139 4 -3 10 22 14 55 10 84 22 82 18 -3 -2 -40 1 -112
8 -160 7 -49 9 -91 6 -94 -3 -3 -16 7 -29 22 -22 26 -25 27 -61 15 -20 -6 -42
-20 -49 -31 -10 -16 -13 -14 -24 23 -7 23 -11 44 -9 45 1 2 29 14 62 27 32 13
60 28 62 34 1 5 -19 -1 -45 -14 -71 -33 -93 -38 -93 -20 0 8 5 18 11 22 20 12
64 118 124 301 33 101 62 178 64 171 2 -6 -2 -59 -9 -117z m1115 -51 c20 -39
47 -192 43 -247 -3 -43 -6 -35 -26 72 -13 66 -32 144 -42 173 -16 44 -16 51
-4 41 8 -7 21 -24 29 -39z m-143 29 c17 -7 33 -27 46 -57 41 -98 44 -115 41
-222 -1 -14 5 -54 11 -90 17 -87 1 -167 -41 -208 -43 -41 -180 -116 -281 -151
-122 -42 -223 -61 -329 -61 -117 0 -168 21 -210 89 -59 93 -147 426 -127 483
14 40 78 93 142 117 71 26 74 26 88 -3 10 -22 6 -30 -32 -73 -80 -90 -98 -170
-51 -232 l19 -25 -5 45 c-4 39 0 51 34 104 22 33 48 67 57 75 16 13 20 12 38
-13 28 -38 41 -34 21 8 -16 34 -16 35 8 61 22 23 99 70 99 60 0 -2 -9 -23 -20
-47 -37 -82 -21 -250 34 -341 36 -61 112 -118 157 -118 31 0 41 -19 12 -21
-16 -1 -16 -2 -1 -6 37 -10 139 65 143 104 1 10 7 35 14 57 9 24 12 65 8 110
-5 71 -25 142 -34 118 -3 -7 -17 -19 -33 -27 -27 -14 -28 -16 -17 -56 7 -30 7
-47 -1 -60 -7 -10 -9 -31 -6 -48 9 -42 -26 -75 -69 -67 -46 9 -72 30 -92 73
-25 53 -32 130 -12 130 9 0 18 -12 21 -28 6 -32 39 -69 60 -69 42 0 61 78 31
130 -22 38 -19 116 5 140 12 12 26 17 36 13 14 -5 15 -3 5 15 -8 15 -8 22 -1
22 14 0 86 -36 125 -63 l30 -21 -25 28 c-14 16 -53 48 -87 73 -35 25 -63 48
-63 52 0 12 222 12 252 0z m571 -54 l6 -39 -21 34 c-11 19 -25 38 -31 41 -5 4
-1 9 9 11 25 6 30 0 37 -47z m-1104 12 c-2 -2 -21 -16 -42 -32 l-39 -29 4 25
c2 17 13 27 38 35 30 10 52 11 39 1z m877 -87 c-2 -58 -23 -106 -53 -117 -17
-7 -35 15 -28 35 2 6 1 12 -4 12 -9 0 -29 72 -29 105 0 18 7 20 58 21 l58 1
-2 -57z m-756 -214 c0 -11 -19 -15 -25 -6 -3 5 1 10 9 10 9 0 16 -2 16 -4z
m58 -152 c3 -22 -21 -39 -39 -28 -11 6 -12 38 -2 48 13 13 38 1 41 -20z"/>
<path d="M391 2144 c0 -11 3 -14 6 -6 3 7 2 16 -1 19 -3 4 -6 -2 -5 -13z"/>
<path d="M337 2033 c3 -7 9 -10 14 -7 14 8 11 21 -5 21 -8 0 -12 -6 -9 -14z"/>
<path d="M2980 1580 c0 -16 5 -30 10 -30 6 0 10 14 10 30 0 17 -4 30 -10 30
-5 0 -10 -13 -10 -30z"/>
<path d="M2949 1397 c-49 -189 -79 -256 -203 -446 l-82 -126 -3 -170 c-1 -115
-6 -173 -14 -181 -7 -6 -52 -35 -102 -66 -221 -136 -382 -228 -544 -310 -96
-48 -176 -90 -179 -93 -3 -3 261 -5 586 -5 l592 0 0 714 c0 704 0 714 -20 719
-16 4 -22 -2 -31 -36z"/>
<path d="M2213 1363 c-11 -15 -23 -37 -27 -47 -6 -16 -4 -17 9 -6 19 16 49 70
42 77 -3 2 -14 -8 -24 -24z"/>
<path d="M465 1290 c3 -5 8 -10 11 -10 2 0 4 5 4 10 0 6 -5 10 -11 10 -5 0 -7
-4 -4 -10z"/>
<path d="M260 1156 c0 -2 8 -10 18 -17 15 -13 16 -12 3 4 -13 16 -21 21 -21
13z"/>
<path d="M317 1110 c10 -11 9 -18 -5 -33 -17 -19 -16 -20 8 -7 14 7 26 14 28
15 1 1 -8 10 -20 21 -13 10 -17 12 -11 4z"/>
<path d="M2255 1055 c-22 -7 -35 -13 -30 -14 6 -1 17 -6 25 -11 12 -8 10 -14
-15 -42 -25 -27 -26 -29 -5 -13 44 34 90 79 90 87 0 11 -17 9 -65 -7z"/>
<path d="M467 1027 c13 -22 -174 -166 -342 -262 -55 -31 -106 -62 -113 -67 -9
-8 -12 -91 -12 -354 l0 -344 643 0 642 1 -94 32 -95 33 -82 244 c-45 135 -100
288 -123 340 -22 52 -41 100 -41 105 0 6 -27 37 -60 70 -33 33 -81 89 -107
126 l-47 66 -87 9 c-48 5 -85 5 -82 1z"/>
<path d="M2188 1033 c7 -3 16 -2 19 1 4 3 -2 6 -13 5 -11 0 -14 -3 -6 -6z"/>
<path d="M2148 1023 c7 -3 16 -2 19 1 4 3 -2 6 -13 5 -11 0 -14 -3 -6 -6z"/>
<path d="M2098 1013 c7 -3 16 -2 19 1 4 3 -2 6 -13 5 -11 0 -14 -3 -6 -6z"/>
<path d="M1978 983 c7 -3 16 -2 19 1 4 3 -2 6 -13 5 -11 0 -14 -3 -6 -6z"/>
<path d="M1727 909 c-43 -17 -77 -33 -75 -35 4 -4 159 53 167 62 10 10 -19 1
-92 -27z"/>
<path d="M1625 861 c-7 -12 1 -16 40 -25 22 -5 26 -4 15 4 -8 5 -23 10 -33 10
-10 0 -15 5 -12 10 3 6 4 10 1 10 -3 0 -7 -4 -11 -9z"/>
<path d="M2384 508 l-19 -23 23 19 c21 18 27 26 19 26 -2 0 -12 -10 -23 -22z"/>
<path d="M2324 458 l-19 -23 23 19 c21 18 27 26 19 26 -2 0 -12 -10 -23 -22z"/>
</g>
</svg>
